HIERARCHY
ROOT Hips
{
	OFFSET -0.001795 -0.223333 0.028219
	CHANNELS 6 Xposition Yposition Zposition Zrotation Yrotation Xrotation 
	JOINT LeftUpLeg
	{
		OFFSET 0.069520 -0.091406 -0.006815
		CHANNELS 3 Zrotation Yrotation Xrotation
		JOINT LeftLeg
		{
			OFFSET 0.034277 -0.375199 -0.004496
			CHANNELS 3 Zrotation Yrotation Xrotation
			JOINT LeftFoot
			{
				OFFSET -0.013596 -0.397961 -0.043693
				CHANNELS 3 Zrotation Yrotation Xrotation
				JOINT LeftToe
				{
					OFFSET 0.026358 -0.055791 0.119288
					CHANNELS 3 Zrotation Yrotation Xrotation
					End Site
					{
						OFFSET 0.000000 0.000000 0.000000
					}
				}
			}
		}
	}
	JOINT RightUpLeg
	{
		OFFSET -0.067670 -0.090522 -0.004320
		CHANNELS 3 Zrotation Yrotation Xrotation
		JOINT RightLeg
		{
			OFFSET -0.038290 -0.382569 -0.008850
			CHANNELS 3 Zrotation Yrotation Xrotation
			JOINT RightFoot
			{
				OFFSET 0.015774 -0.398415 -0.042312
				CHANNELS 3 Zrotation Yrotation Xrotation
				JOINT RightToe
				{
					OFFSET -0.025372 -0.048144 0.123348
					CHANNELS 3 Zrotation Yrotation Xrotation
					End Site
					{
						OFFSET 0.000000 0.000000 0.000000
					}
				}
			}
		}
	}
	JOINT Spine
	{
		OFFSET -0.002533 0.108963 -0.026696
		CHANNELS 3 Zrotation Yrotation Xrotation
		JOINT Spine1
		{
			OFFSET 0.005487 0.135180 0.001092
			CHANNELS 3 Zrotation Yrotation Xrotation
			JOINT Spine2
			{
				OFFSET 0.001457 0.052922 0.025425
				CHANNELS 3 Zrotation Yrotation Xrotation
				JOINT Neck
				{
					OFFSET -0.002778 0.213870 -0.042857
					CHANNELS 3 Zrotation Yrotation Xrotation
					JOINT Head
					{
						OFFSET 0.005152 0.064970 0.051349
						CHANNELS 3 Zrotation Yrotation Xrotation
						End Site
						{
							OFFSET 0.000000 0.000000 0.000000
						}
					}
				}
				JOINT LeftShoulder
				{
					OFFSET 0.078845 0.121749 -0.034090
					CHANNELS 3 Zrotation Yrotation Xrotation
					JOINT LeftArm
					{
						OFFSET 0.090977 0.030469 -0.008868
						CHANNELS 3 Zrotation Yrotation Xrotation
						JOINT LeftForeArm
						{
							OFFSET 0.259612 -0.012772 -0.027456
							CHANNELS 3 Zrotation Yrotation Xrotation
							JOINT LeftHand
							{
								OFFSET 0.249234 0.008986 -0.001171
								CHANNELS 3 Zrotation Yrotation Xrotation
								End Site
								{
									OFFSET 0.000000 0.000000 0.000000
								}
							}
						}
					}
				}
				JOINT RightShoulder
				{
					OFFSET -0.081759 0.118833 -0.038615
					CHANNELS 3 Zrotation Yrotation Xrotation
					JOINT RightArm
					{
						OFFSET -0.096012 0.032551 -0.009143
						CHANNELS 3 Zrotation Yrotation Xrotation
						JOINT RightForeArm
						{
							OFFSET -0.253742 -0.013329 -0.021401
							CHANNELS 3 Zrotation Yrotation Xrotation
							JOINT RightHand
							{
								OFFSET -0.255298 0.007772 -0.005559
								CHANNELS 3 Zrotation Yrotation Xrotation
								End Site
								{
									OFFSET 0.000000 0.000000 0.000000
								}
							}
						}
					}
				}
			}
		}
	}
}
MOTION
Frames: 10
Frame Time: 0.050000
0.000000 0.943527 0.000000 -0.514017 -5.253225 -3.354385 -4.903200 -0.331620 -2.331691 -1.695910 0.138316 4.866522 2.664828 6.649766 3.732457 0.000000 0.000000 0.000000 -2.168264 1.099541 -12.419315 5.980670 0.221991 52.446856 -3.227049 -10.186122 6.793400 0.000000 0.000000 0.000000 -1.855305 -0.133764 5.885479 -0.764697 0.372980 -2.668921 0.250689 -4.883046 11.073413 2.038110 -0.889763 -19.120238 0.000000 0.000000 0.000000 -24.322379 -6.441499 4.380756 -49.313464 -12.363760 -2.300548 0.459299 -32.179412 1.825068 0.000000 0.000000 0.000000 21.274063 6.214034 -0.736262 55.380135 0.693666 -5.225136 2.767733 24.339372 1.025834 0.000000 0.000000 0.000000 
0.001729 0.945026 0.024076 -1.380397 -2.951567 -3.082782 -4.009538 0.067775 0.506353 -1.382857 0.096331 3.297104 0.760770 3.134337 4.056178 0.000000 0.000000 0.000000 -2.147614 1.504814 -17.178233 6.272774 -0.714487 51.218919 -3.883521 -11.470163 6.886139 0.000000 0.000000 0.000000 -1.351362 -0.146408 5.126883 0.204836 -0.066519 -1.752234 -0.616822 -6.681496 11.191366 2.393987 -1.047377 -20.602581 0.000000 0.000000 0.000000 -22.035533 -6.549858 4.407484 -52.106208 -14.489285 -1.308701 1.933395 -31.795954 1.488826 0.000000 0.000000 0.000000 20.373956 5.511366 -1.088437 57.180512 0.015979 -5.831312 3.341540 25.153650 1.150191 0.000000 0.000000 0.000000 
0.002462 0.945456 0.047913 -1.614952 -1.189148 -3.446836 -4.732404 0.284951 2.066149 0.242958 -0.187402 4.484437 0.730013 2.076718 1.251946 0.000000 0.000000 0.000000 -1.306132 1.848783 -20.063394 4.402954 -0.167056 45.614954 -3.425804 -9.745283 4.077553 0.000000 0.000000 0.000000 -0.858102 -0.188592 5.623026 0.396930 -0.123600 -2.505198 -0.641586 -6.610629 11.785006 1.304475 -0.361253 -19.805506 0.000000 0.000000 0.000000 -22.419570 -7.420355 4.637497 -51.003601 -15.323073 -0.978040 1.677873 -33.263835 1.564564 0.000000 0.000000 0.000000 19.459351 4.651999 -1.065354 58.872406 -0.919340 -6.740141 2.432686 26.225417 1.085271 0.000000 0.000000 0.000000 
0.002428 0.943196 0.072026 -1.744275 0.799616 -3.771204 -4.398136 0.532421 4.029581 0.156846 -0.195517 4.869189 0.290304 -0.106850 -1.493827 0.000000 0.000000 0.000000 -0.563337 2.078484 -21.848810 2.150171 0.455630 37.231887 -2.629004 -7.434551 2.571160 0.000000 0.000000 0.000000 -0.957467 -0.208726 6.177679 0.734313 -0.273958 -2.167092 -0.503137 -7.876791 11.355179 0.963052 -0.123356 -20.876099 0.000000 0.000000 0.000000 -21.606940 -6.190507 3.886822 -52.543519 -15.508399 -0.764266 1.981365 -36.674767 1.775584 0.000000 0.000000 0.000000 19.391645 4.350569 -1.287976 58.755245 -0.990810 -6.710338 3.514170 27.307767 1.338818 0.000000 0.000000 0.000000 
0.001576 0.939468 0.097147 -1.869322 2.616628 -4.115968 -4.427753 0.651139 5.005089 0.720339 -0.390797 7.142044 0.204218 -1.641791 -3.851393 0.000000 0.000000 0.000000 0.327071 2.291354 -23.075474 0.349630 0.773014 27.507819 -1.262479 -4.754251 4.261368 0.000000 0.000000 0.000000 -0.740627 -0.244728 6.696715 0.589987 -0.185325 -2.340363 -0.274251 -8.088328 11.918580 0.928305 -0.017386 -21.064993 0.000000 0.000000 0.000000 -21.916833 -6.483366 3.878809 -52.636847 -15.864104 -0.632131 2.331811 -37.816226 1.692238 0.000000 0.000000 0.000000 19.241909 4.260874 -1.084991 59.571990 -0.740380 -6.814451 3.752182 27.609074 1.472799 0.000000 0.000000 0.000000 
0.000306 0.935154 0.124471 -1.924584 4.354049 -4.163338 -3.866076 0.679728 5.527845 1.106506 -0.605056 9.679315 0.019741 -3.680540 -6.190237 0.000000 0.000000 0.000000 0.051151 2.173415 -23.216373 0.485039 0.407170 17.612253 0.948489 -0.425125 6.172980 0.000000 0.000000 0.000000 -0.729483 -0.269612 7.146382 0.738792 -0.230340 -2.536489 -0.101086 -8.748460 11.947832 0.386906 0.402238 -22.537017 0.000000 0.000000 0.000000 -21.805730 -5.497557 3.203073 -53.416787 -15.044332 -0.934180 1.258552 -39.721468 2.197290 0.000000 0.000000 0.000000 18.389292 4.280257 -0.880477 60.931672 0.003016 -6.698543 3.698698 27.915441 1.499919 0.000000 0.000000 0.000000 
-0.001269 0.930999 0.154702 -1.798867 6.141123 -3.637557 -4.026565 0.773422 6.283270 2.103695 -0.904046 11.008529 -0.747131 -6.951382 -7.753577 0.000000 0.000000 0.000000 0.153181 2.107187 -23.156202 0.349781 0.236817 10.015175 3.283614 3.616603 8.739056 0.000000 0.000000 0.000000 -0.492854 -0.264684 6.619830 1.009950 -0.312640 -3.021832 -0.573750 -8.110908 12.390489 0.457444 0.532642 -21.689695 0.000000 0.000000 0.000000 -21.297976 -4.884485 2.338550 -54.219463 -13.639988 -1.470780 -0.135780 -41.109078 2.662191 0.000000 0.000000 0.000000 19.240138 3.942904 -0.682385 60.908357 0.774639 -6.350118 2.869807 28.752554 1.491244 0.000000 0.000000 0.000000 
-0.002510 0.927218 0.188280 -1.589806 8.259585 -3.338132 -3.867422 0.829713 6.994635 2.392760 -1.177511 13.375428 -0.582267 -7.694068 -8.872084 0.000000 0.000000 0.000000 0.509908 2.084149 -23.179241 0.057823 0.235910 8.588191 4.854182 6.405473 10.080002 0.000000 0.000000 0.000000 -0.263133 -0.268495 6.332816 1.144626 -0.353786 -3.012293 -0.495581 -7.871822 12.047921 0.295888 0.788613 -21.283219 0.000000 0.000000 0.000000 -22.167882 -3.811048 1.283359 -54.415244 -11.667887 -2.267793 -2.002545 -40.772791 3.134430 0.000000 0.000000 0.000000 19.566473 3.588132 -0.526817 60.904586 1.601738 -5.924670 0.348455 29.203580 1.012360 0.000000 0.000000 0.000000 
-0.002949 0.924831 0.224759 -1.358658 10.348195 -3.060733 -3.416705 0.833181 7.521686 2.808009 -1.533968 15.751586 -0.852432 -8.394896 -8.609640 0.000000 0.000000 0.000000 0.998326 2.029370 -22.326372 -0.755993 0.411848 10.324919 5.170648 6.929777 10.760023 0.000000 0.000000 0.000000 0.221861 -0.256545 5.570393 1.349864 -0.437273 -2.853556 -0.516778 -7.426861 11.213366 1.077429 0.474073 -20.083837 0.000000 0.000000 0.000000 -22.648321 -3.103001 0.326471 -54.696872 -8.690041 -3.443289 -5.638649 -39.095234 4.033611 0.000000 0.000000 0.000000 19.732958 2.994903 -0.447525 60.743788 2.357709 -5.471928 -2.239680 30.403707 0.518964 0.000000 0.000000 0.000000 
-0.002082 0.927369 0.261999 -1.489961 11.673974 -2.725627 -3.128381 0.741338 6.873573 3.715011 -2.294795 20.038841 -1.594180 -9.659175 -7.781196 0.000000 0.000000 0.000000 0.968456 1.923966 -21.638418 -0.301779 0.313842 12.973452 4.793629 6.474225 10.422661 0.000000 0.000000 0.000000 0.817001 -0.227042 4.539328 1.672641 -0.691830 -1.364279 0.006433 -6.575248 9.485301 1.180305 0.571818 -19.550209 0.000000 0.000000 0.000000 -23.187479 -1.500745 -1.136301 -55.483764 -5.321822 -4.780753 -8.168970 -38.147148 4.594509 0.000000 0.000000 0.000000 19.309542 2.651471 -0.280081 59.981988 3.141926 -4.868198 -3.108209 31.458061 0.389046 0.000000 0.000000 0.000000 
